<svg width="528" height="384" viewBox="0 0 528 384" fill="none" xmlns="http://www.w3.org/2000/svg">
<rect width="528" height="384" fill="#F9FAFA"/>
<g clip-path="url(#clip0_10_13)">
<path d="M278.529 145.972V167.278L260.08 177.933V191.25L290.064 173.938V139.311L278.529 145.972Z" fill="#00AC69"/>
<path d="M260.08 135.321L278.529 145.972L290.064 139.311L260.08 122L230.093 139.311L241.628 145.972L260.08 135.321Z" fill="#1CE783"/>
<path d="M248.541 163.288V184.593L260.08 191.25V156.627L230.093 139.311V152.632L248.541 163.288Z" fill="#1D252C"/>
<path d="M145.348 225.907C138.892 225.907 135.834 229.985 135.834 229.985H135.494L134.815 226.587H127V261.244H135.494V241.206C135.494 236.789 138.544 233.731 142.974 233.731C147.404 233.731 150.449 236.78 150.449 241.206V261.244H158.944V240.518C158.944 231.683 153.167 225.907 145.348 225.907Z" fill="#1D252C"/>
<path d="M236.958 249.356H236.47L230.694 226.591H222.051L216.275 249.356H215.787L210.011 226.591H201.177L210.011 261.244H220.352L226.129 238.823H226.616L232.393 261.244H242.734L251.568 226.591H242.734L236.958 249.356Z" fill="#1D252C"/>
<path d="M277.579 229.645H277.239L276.56 226.595H269.424V261.244H277.941V241.206C277.941 236.789 279.979 234.75 284.396 234.75H288.753V226.587H283.699C282.512 226.586 281.34 226.862 280.278 227.393C279.216 227.924 278.292 228.695 277.579 229.645V229.645Z" fill="#1D252C"/>
<path d="M307.532 225.907C297.338 225.907 289.863 233.382 289.863 243.916C289.863 254.449 296.916 261.924 307.532 261.924C316.127 261.924 321.297 256.866 323.454 253.146L315.656 250.354C314.885 251.765 311.775 254.479 307.532 254.479C302.575 254.479 299.037 251.378 298.358 246.638H324.181C324.417 245.521 324.529 244.382 324.517 243.24C324.517 233.365 317.046 225.907 307.532 225.907ZM298.358 240.858C299.377 236.44 302.435 233.043 307.532 233.043C312.289 233.043 315.347 236.44 316.026 240.858H298.358Z" fill="#1D252C"/>
<path d="M182.04 225.907C171.847 225.907 164.371 233.382 164.371 243.916C164.371 254.449 171.424 261.924 182.04 261.924C190.635 261.924 195.805 256.866 197.962 253.146L190.169 250.354C189.393 251.765 186.287 254.479 182.04 254.479C177.087 254.479 173.545 251.378 172.866 246.638H198.689C198.928 245.522 199.042 244.382 199.029 243.24C199.029 233.365 191.554 225.907 182.04 225.907ZM172.866 240.858C173.885 236.44 176.943 233.043 182.04 233.043C186.797 233.043 189.855 236.44 190.534 240.858H172.866Z" fill="#1D252C"/>
<path d="M354.212 212.908H345.718V221.403H354.212V212.908Z" fill="#1D252C"/>
<path d="M377.653 254.109C372.556 254.109 368.479 250.032 368.479 243.915C368.479 237.799 372.556 233.722 377.653 233.722C382.75 233.722 384.788 237.12 385.468 239.159L393.161 236.414C391.301 231.574 386.722 225.898 377.653 225.898C367.459 225.898 359.984 233.374 359.984 243.907C359.984 254.44 367.459 261.915 377.653 261.915C386.801 261.915 391.375 256.148 393.204 251.077L385.468 248.324C384.788 250.711 382.75 254.109 377.653 254.109Z" fill="#1D252C"/>
<path d="M325.457 220.458H330.28V261.244H338.774V212.908H325.457V220.458Z" fill="#1D252C"/>
<path d="M354.208 226.591H345.714V261.249H354.208V226.591Z" fill="#1D252C"/>
<path d="M397.735 254.579C397.085 254.57 396.447 254.754 395.902 255.108C395.357 255.462 394.93 255.97 394.674 256.568C394.419 257.166 394.347 257.826 394.468 258.464C394.589 259.103 394.897 259.691 395.353 260.154C395.81 260.617 396.393 260.934 397.03 261.064C397.667 261.194 398.328 261.132 398.929 260.886C399.53 260.64 400.045 260.22 400.407 259.68C400.769 259.14 400.962 258.505 400.963 257.855C400.977 257.425 400.903 256.997 400.747 256.596C400.59 256.195 400.354 255.831 400.052 255.524C399.75 255.218 399.389 254.976 398.99 254.814C398.592 254.651 398.165 254.571 397.735 254.579V254.579ZM397.735 260.63C397.184 260.64 396.643 260.485 396.18 260.186C395.718 259.887 395.354 259.457 395.137 258.951C394.92 258.445 394.858 257.885 394.959 257.344C395.061 256.802 395.322 256.304 395.708 255.911C396.094 255.518 396.588 255.249 397.128 255.138C397.667 255.027 398.227 255.079 398.737 255.287C399.247 255.496 399.683 255.851 399.99 256.309C400.298 256.766 400.462 257.304 400.462 257.855C400.477 258.22 400.417 258.583 400.286 258.923C400.154 259.264 399.955 259.573 399.699 259.833C399.444 260.094 399.138 260.298 398.8 260.435C398.462 260.572 398.099 260.639 397.735 260.63Z" fill="#1D252C"/>
<path d="M399.164 257.263C399.162 257.106 399.129 256.951 399.065 256.808C399.002 256.664 398.91 256.536 398.795 256.429C398.68 256.323 398.544 256.241 398.396 256.189C398.248 256.136 398.091 256.115 397.935 256.126H396.476V259.541H396.977V258.356H397.412L398.593 259.541H399.229L398.048 258.356C398.341 258.358 398.623 258.245 398.832 258.04C399.041 257.835 399.16 257.555 399.164 257.263V257.263ZM396.985 257.855V256.627H397.944C398.034 256.616 398.126 256.624 398.213 256.651C398.3 256.677 398.381 256.722 398.449 256.782C398.518 256.842 398.573 256.916 398.612 256.999C398.65 257.082 398.67 257.172 398.671 257.263C398.671 257.629 398.44 257.855 397.944 257.855H396.985Z" fill="#1D252C"/>
</g>
<defs>
<clipPath id="clip0_10_13">
<rect width="273.98" height="139.924" fill="white" transform="translate(127 122)"/>
</clipPath>
</defs>
</svg>
